# xmcd
#
# Track frame offsets:
#	150
#	13905
#	44565
#
# Disc length: 892 seconds
#
# Revision: 1
# Processed by: cddbd v1.4PL0 Copyright (c) Steve Scherf et al.
# Submitted via: audiograbber 1.80
#
DISCID=22037a03
DTITLE=Rick Astley - When I Fall In Love (Maxi)
DYEAR=1900
DGENRE=
TTITLE0=When I Fall In Love
TTITLE1=My Arms Keep Missing You (The No L Mix)
TTITLE2=My Arms Keep Missing You (Dub)
EXTD=
EXTT0=
EXTT1=
EXTT2=
PLAYORDER=
